# xmcd
#
# Track frame offsets:
#	150
#	82362
#	110594
#	123007
#	150731
#	164411
#	177750
#	197630
#	215685
#
# Disc length: 3028 seconds
#
# Revision: 0
# Processed by: cddbd v1.5.1PL2 Copyright (c) Steve Scherf et al.
# Submitted via: dBpowerAMP V4.0
#
DISCID=7a0bd209
DTITLE=Arlo Guthrie - The Best of
DYEAR=1977
DGENRE=Country
TTITLE0=Alice's restaurant Massacree
TTITLE1=Gabriel's Mother's Higway Ballad #16 Blues
TTITLE2=Cooper's Lament
TTITLE3=Motorcycle (Significance of the pickle song)
TTITLE4=Coming into Los Angeles AG
TTITLE5=Last train
TTITLE6=City of New Orleans
TTITLE7=Darkest hour
TTITLE8=Last to leave
EXTD=
EXTT0=
EXTT1=
EXTT2=
EXTT3=
EXTT4=
EXTT5=
EXTT6=
EXTT7=
EXTT8=
PLAYORDER=
